<svg width="350" height="683" viewBox="0 0 350 683" fill="none" xmlns="http://www.w3.org/2000/svg">
<g clip-path="url(#clip0_322_12756)">
<path d="M61 630H247L247 498H61L61 630Z" fill="#0693E3" fill-opacity="0.8"/>
<path d="M181 662H345V498H181L181 662Z" fill="#EC297B" fill-opacity="0.8"/>
<path opacity="0.9" d="M147 537H207V477H147V537Z" fill="#00D084" fill-opacity="0.8"/>
<path opacity="0.9" d="M0 578H92L92 514H0L0 578Z" fill="#8ED1FC" fill-opacity="0.8"/>
<path opacity="0.9" d="M284 683H334V598H284V683Z" fill="#00D084" fill-opacity="0.8"/>
<path d="M266.401 65.0265V26.6457L248.084 20.2949V0L344.353 34.6532V57.1571L248.084 91.8102V71.3773L266.401 65.0265ZM281.826 59.7802L322.042 45.8361L281.826 31.892V59.7802Z" fill="white"/>
<path d="M286.234 99.7929C294.13 99.7929 301.016 101.404 306.892 104.625C312.86 107.846 317.451 112.31 320.665 118.017C323.97 123.723 325.623 130.258 325.623 137.622C325.623 147.102 323.236 154.925 318.461 161.092C313.778 167.351 307.168 171.538 298.629 173.655V152.808C301.934 151.704 304.505 149.817 306.341 147.148C308.269 144.571 309.234 141.349 309.234 137.483C309.234 131.961 307.214 127.589 303.174 124.368C299.226 121.146 293.579 119.536 286.234 119.536C278.98 119.536 273.333 121.146 269.293 124.368C265.345 127.589 263.371 131.961 263.371 137.483C263.371 145.307 266.86 150.415 273.838 152.808V173.655C265.575 171.538 259.01 167.351 254.144 161.092C249.277 154.833 246.844 147.01 246.844 137.622C246.844 130.258 248.451 123.723 251.665 118.017C254.97 112.31 259.561 107.846 265.437 104.625C271.405 101.404 278.337 99.7929 286.234 99.7929Z" fill="white"/>
<path d="M286.509 182.845C294.222 182.845 301.062 184.364 307.03 187.401C312.998 190.53 317.589 194.718 320.802 199.964C324.016 205.303 325.623 211.239 325.623 217.774C325.623 223.481 324.475 228.451 322.18 232.685C319.884 237.011 316.992 240.462 313.503 243.039H324.383V262.506H248.084V243.039H259.24C255.659 240.554 252.675 237.103 250.287 232.685C247.992 228.359 246.844 223.343 246.844 217.636C246.844 211.193 248.497 205.303 251.802 199.964C255.108 194.718 259.745 190.53 265.713 187.401C271.772 184.364 278.705 182.845 286.509 182.845ZM286.234 243.039C290.916 243.039 294.91 242.119 298.216 240.278C301.613 238.437 304.184 235.952 305.928 232.823C307.764 229.693 308.683 226.334 308.683 222.744C308.683 219.155 307.81 215.841 306.066 212.804C304.321 209.767 301.751 207.282 298.353 205.349C295.048 203.508 291.1 202.588 286.509 202.588C281.918 202.588 277.878 203.508 274.389 205.349C270.992 207.282 268.375 209.767 266.539 212.804C264.703 215.933 263.784 219.247 263.784 222.744C263.784 226.334 264.657 229.693 266.401 232.823C268.238 235.952 270.808 238.437 274.114 240.278C277.511 242.119 281.551 243.039 286.234 243.039Z" fill="white"/>
<path d="M286.509 276.413C294.222 276.413 301.062 277.932 307.03 280.969C312.998 284.099 317.589 288.333 320.802 293.671C324.016 299.009 325.623 304.946 325.623 311.481C325.623 316.451 324.521 321.191 322.317 325.701C320.206 330.211 317.359 333.8 313.778 336.47H350V356.074H248.084V336.47H259.377C255.613 334.077 252.583 330.717 250.287 326.391C247.992 322.065 246.844 317.049 246.844 311.343C246.844 304.9 248.497 299.009 251.802 293.671C255.108 288.333 259.745 284.099 265.713 280.969C271.772 277.932 278.705 276.413 286.509 276.413ZM286.234 336.608C290.916 336.608 294.91 335.687 298.216 333.846C301.613 332.006 304.184 329.521 305.928 326.391C307.764 323.262 308.683 319.902 308.683 316.313C308.683 312.723 307.81 309.41 306.066 306.372C304.321 303.335 301.751 300.85 298.353 298.917C295.048 297.076 291.1 296.156 286.509 296.156C281.918 296.156 277.878 297.076 274.389 298.917C270.992 300.85 268.375 303.335 266.539 306.372C264.703 309.502 263.784 312.815 263.784 316.313C263.784 319.902 264.657 323.262 266.401 326.391C268.238 329.521 270.808 332.006 274.114 333.846C277.511 335.687 281.551 336.608 286.234 336.608Z" fill="white"/>
<path d="M287.886 446.053C285.132 446.053 282.653 445.869 280.449 445.501V389.586C274.94 390.046 270.625 391.979 267.503 395.385C264.381 398.79 262.82 402.978 262.82 407.948C262.82 415.127 265.896 420.236 272.048 423.273V444.12C264.703 441.911 258.643 437.677 253.868 431.419C249.186 425.16 246.844 417.474 246.844 408.362C246.844 400.999 248.451 394.372 251.665 388.482C254.97 382.683 259.607 378.127 265.575 374.814C271.543 371.592 278.429 369.982 286.234 369.982C294.13 369.982 301.062 371.592 307.03 374.814C312.998 378.035 317.589 382.545 320.802 388.344C324.016 394.142 325.623 400.815 325.623 408.362C325.623 415.634 324.062 422.123 320.94 427.829C317.818 433.628 313.365 438.091 307.581 441.221C301.888 444.442 295.323 446.053 287.886 446.053ZM293.395 426.034C298.353 425.942 302.301 424.147 305.24 420.65C308.269 417.152 309.784 412.872 309.784 407.81C309.784 403.024 308.315 398.974 305.377 395.661C302.531 392.44 298.537 390.461 293.395 389.724V426.034Z" fill="white"/>
<path d="M325.485 555.147C325.485 564.535 322.593 572.082 316.808 577.789C311.116 583.587 303.128 586.486 292.844 586.486H248.084V567.158H290.228C296.196 567.158 300.741 565.639 303.862 562.602C307.076 559.565 308.683 555.423 308.683 550.177C308.683 544.93 307.076 540.742 303.862 537.613C300.741 534.576 296.196 533.057 290.228 533.057H248.084V513.729H290.228C296.196 513.729 300.741 512.21 303.862 509.173C307.076 506.135 308.683 501.993 308.683 496.747C308.683 491.409 307.076 487.175 303.862 484.046C300.741 481.008 296.196 479.49 290.228 479.49H248.084V460.161H324.383V479.49H315.156C318.369 481.975 320.894 485.15 322.731 489.016C324.567 492.973 325.485 497.299 325.485 501.993C325.485 507.976 324.2 513.314 321.629 518.008C319.15 522.702 315.569 526.338 310.886 528.915C315.293 531.4 318.828 534.99 321.491 539.684C324.154 544.47 325.485 549.624 325.485 555.147Z" fill="white"/>
<path d="M324.383 678L212 630.645V610.074L250.012 626.642L324.383 595.992V617.668L271.084 637.41L324.383 657.429V678Z" fill="white"/>
</g>
<defs>
<clipPath id="clip0_322_12756">
<rect width="350" height="683" fill="white"/>
</clipPath>
</defs>
</svg>
