<svg width="116" height="520" viewBox="0 0 116 520" fill="none" xmlns="http://www.w3.org/2000/svg">
<g clip-path="url(#clip0_322_14956)">
<path d="M94.008 447.055V490.109L114.606 497.234V520L6.34979 481.127V455.882L114.606 417.009V439.931L94.008 447.055ZM76.6622 452.94L31.4393 468.582L76.6622 484.224V452.94Z" fill="#F5F5F7"/>
<path d="M46.6168 377.235H88.1228C91.0138 377.235 93.1304 376.564 94.4726 375.221C95.7116 373.776 96.3311 371.401 96.3311 368.097V358.03H114.606V371.659C114.606 389.934 105.727 399.072 87.968 399.072H46.6168V409.294H28.8064V399.072H7.58878V377.235H28.8064V358.03H46.6168V377.235Z" fill="#F5F5F7"/>
<path d="M46.6168 317.191H88.1228C91.0138 317.191 93.1304 316.52 94.4726 315.178C95.7116 313.732 96.3311 311.358 96.3311 308.054V297.987H114.606V311.616C114.606 329.891 105.727 339.028 87.968 339.028H46.6168V349.25H28.8064V339.028H7.58878V317.191H28.8064V297.987H46.6168V317.191Z" fill="#F5F5F7"/>
<path d="M69.8478 202.632C72.9453 202.632 75.733 202.839 78.2109 203.252V265.975C84.4059 265.459 89.2586 263.291 92.769 259.471C96.2795 255.65 98.0347 250.953 98.0347 245.377C98.0347 237.324 94.5759 231.593 87.6582 228.186V204.8C95.9181 207.278 102.733 212.028 108.101 219.049C113.367 226.07 116 234.691 116 244.913C116 253.172 114.193 260.606 110.579 267.214C106.862 273.719 101.648 278.83 94.9373 282.547C88.2261 286.16 80.4824 287.967 71.7063 287.967C62.8269 287.967 55.0316 286.16 48.3204 282.547C41.6093 278.933 36.4468 273.874 32.8331 267.369C29.2194 260.864 27.4125 253.379 27.4125 244.913C27.4125 236.756 29.1678 229.477 32.6782 223.075C36.1887 216.571 41.1963 211.563 47.7009 208.053C54.1024 204.439 61.4846 202.632 69.8478 202.632ZM63.6529 225.089C58.0774 225.192 53.6377 227.205 50.3338 231.129C46.9266 235.052 45.223 239.853 45.223 245.532C45.223 250.901 46.8749 255.444 50.1789 259.161C53.3796 262.775 57.8709 264.994 63.6529 265.82V225.089Z" fill="#F5F5F7"/>
<path d="M27.5674 139.26C27.5674 129.038 30.8198 120.778 37.3244 114.48C43.7259 108.182 52.7085 105.033 64.2724 105.033H114.606V126.715H67.215C60.4005 126.715 55.1865 128.419 51.5728 131.826C47.8558 135.233 45.9973 139.879 45.9973 145.765C45.9973 151.753 47.8558 156.503 51.5728 160.013C55.1865 163.42 60.4005 165.124 67.215 165.124H114.606V186.806H28.8064V165.124H39.4927C35.7757 162.233 32.8847 158.568 30.8198 154.128C28.6515 149.585 27.5674 144.629 27.5674 139.26Z" fill="#F5F5F7"/>
<path d="M71.3965 89.9898C62.7236 89.9898 55.0316 88.2862 48.3204 84.879C41.6093 81.3685 36.4468 76.6191 32.8331 70.6306C29.2194 64.6422 27.4125 57.9827 27.4125 50.652C27.4125 45.0766 28.6515 39.7592 31.1295 34.7C33.5042 29.6408 36.7049 25.6142 40.7316 22.6199H0V0.627922H114.606V22.6199H101.907C106.14 25.3044 109.547 29.073 112.128 33.9257C114.709 38.7784 116 44.4054 116 50.8069C116 58.0343 114.142 64.6422 110.425 70.6306C106.708 76.6191 101.494 81.3685 94.7824 84.879C87.968 88.2862 80.1727 89.9898 71.3965 89.9898ZM71.7063 22.465C66.4406 22.465 61.9493 23.4975 58.2323 25.5625C54.4121 27.6275 51.5211 30.4152 49.5594 33.9257C47.4944 37.4361 46.4619 41.2047 46.4619 45.2314C46.4619 49.2581 47.4428 52.9751 49.4045 56.3823C51.3663 59.7895 54.2572 62.5772 58.0774 64.7454C61.7944 66.8104 66.2341 67.8429 71.3965 67.8429C76.559 67.8429 81.1019 66.8104 85.0254 64.7454C88.8456 62.5772 91.7882 59.7895 93.8531 56.3823C95.9181 52.8718 96.9506 49.1549 96.9506 45.2314C96.9506 41.2047 95.9697 37.4361 94.008 33.9257C91.943 30.4152 89.0521 27.6275 85.3351 25.5625C81.5149 23.4975 76.972 22.465 71.7063 22.465Z" fill="#F5F5F7"/>
</g>
<defs>
<clipPath id="clip0_322_14956">
<rect width="116" height="520" fill="white"/>
</clipPath>
</defs>
</svg>
