<svg width="1280" height="591" viewBox="0 0 1280 591" fill="none" xmlns="http://www.w3.org/2000/svg">
<g clip-path="url(#clip0_366_20972)">
<path d="M133.14 12.036V44.4188H49.8198V95.7152H113.669V127.524H49.8198V212.063H9.73486V12.036H133.14Z" fill="#F5F5F7"/>
<path d="M309.019 129.245C309.019 134.976 308.637 140.134 307.873 144.719H191.913C192.867 156.182 196.876 165.161 203.938 171.657C211.001 178.152 219.686 181.401 229.994 181.401C244.883 181.401 255.476 175.001 261.776 162.2H305.01C300.429 177.484 291.648 190.093 278.669 200.028C265.689 209.771 249.75 214.643 230.853 214.643C215.583 214.643 201.839 211.299 189.623 204.613C177.597 197.735 168.149 188.087 161.277 175.669C154.596 163.251 151.256 148.922 151.256 132.683C151.256 116.253 154.596 101.829 161.277 89.4107C167.958 76.9925 177.311 67.44 189.337 60.7533C201.362 54.0667 215.2 50.7233 230.853 50.7233C245.932 50.7233 259.39 53.9711 271.224 60.4668C283.249 66.9624 292.508 76.2282 298.997 88.2644C305.678 100.11 309.019 113.769 309.019 129.245ZM267.502 117.782C267.311 107.465 263.589 99.2492 256.336 93.136C249.082 86.8315 240.206 83.6792 229.708 83.6792C219.782 83.6792 211.383 86.7359 204.511 92.8495C197.831 98.7717 193.727 107.083 192.2 117.782H267.502Z" fill="#F5F5F7"/>
<path d="M327.969 132.11C327.969 116.062 331.119 101.829 337.418 89.4107C343.908 76.9925 352.593 67.44 363.474 60.7533C374.545 54.0667 386.856 50.7233 400.409 50.7233C412.244 50.7233 422.551 53.1114 431.331 57.8876C440.302 62.6639 447.46 68.6818 452.805 75.9417V53.3024H493.176V212.064H452.805V188.851C447.651 196.302 440.493 202.511 431.331 207.478C422.36 212.255 411.957 214.643 400.122 214.643C386.761 214.643 374.545 211.204 363.474 204.326C352.593 197.449 343.908 187.801 337.418 175.383C331.119 162.774 327.969 148.349 327.969 132.11ZM452.805 132.683C452.805 122.94 450.897 114.629 447.079 107.751C443.261 100.683 438.108 95.3331 431.618 91.7032C425.127 87.8822 418.16 85.9717 410.717 85.9717C403.272 85.9717 396.4 87.7867 390.101 91.4166C383.802 95.0466 378.649 100.396 374.639 107.465C370.822 114.342 368.914 122.557 368.914 132.11C368.914 141.663 370.822 150.068 374.639 157.329C378.649 164.397 383.802 169.842 390.101 173.663C396.591 177.484 403.463 179.394 410.717 179.394C418.16 179.394 425.127 177.579 431.618 173.949C438.108 170.129 443.261 164.779 447.079 157.902C450.897 150.832 452.805 142.427 452.805 132.683Z" fill="#F5F5F7"/>
<path d="M578.997 86.2583V163.06C578.997 168.41 580.238 172.325 582.719 174.81C585.391 177.102 589.782 178.248 595.889 178.248H614.5V212.064H589.304C555.518 212.064 538.626 195.633 538.626 162.774V86.2583H519.728V53.3024H538.626V14.042H578.997V53.3024H614.5V86.2583H578.997Z" fill="#F5F5F7"/>
<path d="M793.077 53.3024V212.064H752.706V192.004C747.553 198.881 740.776 204.326 732.378 208.338C724.17 212.159 715.198 214.069 705.463 214.069C693.056 214.069 682.081 211.49 672.537 206.332C662.993 200.983 655.453 193.246 649.917 183.12C644.573 172.803 641.9 160.576 641.9 146.439V53.3024H681.985V140.707C681.985 153.316 685.135 163.06 691.433 169.938C697.733 176.624 706.323 179.968 717.203 179.968C728.274 179.968 736.959 176.624 743.258 169.938C749.557 163.06 752.706 153.316 752.706 140.707V53.3024H793.077Z" fill="#F5F5F7"/>
<path d="M872.713 77.9477C877.866 69.5416 884.547 62.9504 892.756 58.1742C901.154 53.3981 910.698 51.0099 921.387 51.0099V93.136H910.794C898.196 93.136 888.652 96.0973 882.161 102.02C875.863 107.942 872.713 118.259 872.713 132.969V212.064H832.628V53.3024H872.713V77.9477Z" fill="#F5F5F7"/>
<path d="M1095.84 129.245C1095.84 134.976 1095.46 140.134 1094.7 144.719H978.736C979.691 156.182 983.7 165.161 990.759 171.657C997.829 178.152 1006.51 181.401 1016.82 181.401C1031.71 181.401 1042.3 175.001 1048.6 162.2H1091.83C1087.25 177.484 1078.47 190.093 1065.49 200.028C1052.51 209.771 1036.57 214.643 1017.68 214.643C1002.41 214.643 988.662 211.299 976.446 204.613C964.421 197.735 954.972 188.087 948.1 175.669C941.419 163.251 938.079 148.922 938.079 132.683C938.079 116.253 941.419 101.829 948.1 89.4107C954.782 76.9925 964.134 67.44 976.16 60.7533C988.19 54.0667 1002.02 50.7233 1017.68 50.7233C1032.75 50.7233 1046.21 53.9711 1058.05 60.4668C1070.07 66.9624 1079.34 76.2282 1085.82 88.2644C1092.5 100.11 1095.84 113.769 1095.84 129.245ZM1054.33 117.782C1054.14 107.465 1050.41 99.2492 1043.16 93.136C1035.9 86.8315 1027.03 83.6792 1016.53 83.6792C1006.6 83.6792 998.203 86.7359 991.331 92.8495C984.655 98.7717 980.55 107.083 979.023 117.782H1054.33Z" fill="#F5F5F7"/>
<path d="M1114.79 132.11C1114.79 116.062 1117.94 101.829 1124.24 89.4107C1130.73 76.9925 1139.52 67.44 1150.58 60.7533C1161.65 54.0667 1173.97 50.7233 1187.52 50.7233C1197.82 50.7233 1207.66 53.0159 1217.01 57.6011C1226.36 61.9952 1233.81 67.9177 1239.35 75.3686V0H1280V212.064H1239.35V188.565C1234.38 196.397 1227.41 202.703 1218.44 207.478C1209.47 212.255 1199.06 214.643 1187.23 214.643C1173.87 214.643 1161.65 211.204 1150.58 204.326C1139.52 197.449 1130.73 187.801 1124.24 175.383C1117.94 162.774 1114.79 148.349 1114.79 132.11ZM1239.63 132.683C1239.63 122.94 1237.72 114.629 1233.9 107.751C1230.08 100.683 1224.93 95.3331 1218.44 91.7032C1211.95 87.8822 1204.98 85.9717 1197.54 85.9717C1190.09 85.9717 1183.22 87.7867 1176.92 91.4166C1170.63 95.0466 1165.47 100.396 1161.46 107.465C1157.64 114.342 1155.74 122.557 1155.74 132.11C1155.74 141.663 1157.64 150.068 1161.46 157.329C1165.47 164.397 1170.63 169.842 1176.92 173.663C1183.42 177.484 1190.28 179.394 1197.54 179.394C1204.98 179.394 1211.95 177.579 1218.44 173.949C1224.93 170.129 1230.08 164.779 1233.9 157.902C1237.72 150.832 1239.63 142.427 1239.63 132.683Z" fill="#F5F5F7"/>
<path d="M0 487.89C0 468.212 4.39025 450.635 13.1708 435.161C22.1421 419.494 34.263 407.363 49.5335 398.765C64.9949 389.978 82.2695 385.583 101.357 385.583C123.69 385.583 143.256 391.315 160.053 402.778C176.851 414.24 188.59 430.098 195.271 450.348H149.173C144.592 440.797 138.102 433.632 129.703 428.856C121.496 424.08 111.952 421.691 101.072 421.691C89.4276 421.691 79.0246 424.462 69.8623 430.002C60.8909 435.352 53.8283 442.993 48.6746 452.928C43.7117 462.863 41.2302 474.517 41.2302 487.89C41.2302 501.072 43.7117 512.726 48.6746 522.851C53.8283 532.786 60.8909 540.523 69.8623 546.064C79.0246 551.413 89.4276 554.088 101.072 554.088C111.952 554.088 121.496 551.7 129.703 546.923C138.102 541.956 144.592 534.696 149.173 525.144H195.271C188.59 545.586 176.851 561.539 160.053 573.002C143.447 584.274 123.881 589.91 101.357 589.91C82.2695 589.91 64.9949 585.611 49.5335 577.014C34.263 568.225 22.1421 556.094 13.1708 540.619C4.39025 525.145 0 507.567 0 487.89Z" fill="#F5F5F7"/>
<path d="M299.943 590.769C284.673 590.769 270.93 587.425 258.714 580.739C246.497 573.861 236.857 564.213 229.794 551.795C222.923 539.377 219.488 525.048 219.488 508.81C219.488 492.571 223.018 478.241 230.081 465.823C237.335 453.406 247.165 443.853 259.572 437.166C271.979 430.289 285.818 426.849 301.089 426.849C316.359 426.849 330.198 430.289 342.606 437.166C355.013 443.853 364.748 453.406 371.81 465.823C379.063 478.241 382.691 492.571 382.691 508.81C382.691 525.048 378.969 539.377 371.524 551.795C364.27 564.213 354.344 573.861 341.746 580.739C329.339 587.425 315.405 590.769 299.943 590.769ZM299.943 555.808C307.197 555.808 313.973 554.088 320.273 550.649C326.762 547.019 331.916 541.669 335.734 534.601C339.552 527.532 341.46 518.935 341.46 508.81C341.46 493.717 337.451 482.158 329.435 474.135C321.609 465.919 311.97 461.811 300.516 461.811C289.063 461.811 279.424 465.919 271.597 474.135C263.963 482.158 260.145 493.717 260.145 508.81C260.145 523.902 263.867 535.556 271.312 543.772C278.946 551.795 288.49 555.808 299.943 555.808Z" fill="#F5F5F7"/>
<path d="M499.995 427.136C518.891 427.136 534.163 433.154 545.806 445.19C557.45 457.036 563.272 473.656 563.272 495.054V588.19H523.186V500.499C523.186 487.89 520.037 478.241 513.738 471.555C507.439 464.677 498.849 461.238 487.969 461.238C476.898 461.238 468.118 464.677 461.628 471.555C455.328 478.241 452.179 487.89 452.179 500.499V588.19H412.094V429.429H452.179V449.202C457.523 442.325 464.3 436.975 472.508 433.154C480.907 429.143 490.069 427.136 499.995 427.136Z" fill="#F5F5F7"/>
<path d="M648.06 462.384V539.186C648.06 544.536 649.302 548.452 651.783 550.936C654.455 553.228 658.845 554.375 664.953 554.375H683.564V588.191H658.368C624.582 588.191 607.689 571.76 607.689 538.9V462.384H588.792V429.429H607.689V390.169H648.06V429.429H683.564V462.384H648.06Z" fill="#F5F5F7"/>
<path d="M859.851 505.371C859.851 511.102 859.469 516.26 858.706 520.846H742.746C743.7 532.309 747.708 541.287 754.771 547.783C761.833 554.279 770.519 557.527 780.827 557.527C795.715 557.527 806.308 551.127 812.608 538.327H855.843C851.261 553.61 842.48 566.22 829.501 576.154C816.521 585.897 800.582 590.769 781.685 590.769C766.415 590.769 752.672 587.425 740.455 580.739C728.429 573.861 718.981 564.213 712.109 551.795C705.429 539.377 702.088 525.048 702.088 508.81C702.088 492.38 705.429 477.955 712.109 465.537C718.79 453.119 728.143 443.566 740.169 436.88C752.194 430.193 766.033 426.849 781.685 426.849C796.765 426.849 810.222 430.098 822.056 436.593C834.082 443.089 843.34 452.355 849.829 464.391C856.51 476.236 859.851 489.895 859.851 505.371ZM818.335 493.908C818.144 483.591 814.422 475.376 807.168 469.263C799.914 462.958 791.038 459.806 780.54 459.806C770.614 459.806 762.215 462.863 755.344 468.976C748.663 474.899 744.559 483.209 743.032 493.908H818.335Z" fill="#F5F5F7"/>
<path d="M977.009 427.136C995.909 427.136 1011.18 433.154 1022.82 445.19C1034.47 457.036 1040.29 473.656 1040.29 495.054V588.19H1000.2V500.499C1000.2 487.89 997.051 478.241 990.749 471.555C984.454 464.677 975.864 461.238 964.984 461.238C953.913 461.238 945.132 464.677 938.643 471.555C932.344 478.241 929.194 487.89 929.194 500.499V588.19H889.11V429.429H929.194V449.202C934.539 442.325 941.315 436.975 949.523 433.154C957.921 429.143 967.084 427.136 977.009 427.136Z" fill="#F5F5F7"/>
<path d="M1125.07 462.384V539.186C1125.07 544.536 1126.32 548.452 1128.8 550.936C1131.47 553.228 1135.86 554.375 1141.97 554.375H1160.58V588.191H1135.38C1101.6 588.191 1084.7 571.76 1084.7 538.9V462.384H1065.81V429.429H1084.7V390.169H1125.07V429.429H1160.58V462.384H1125.07Z" fill="#F5F5F7"/>
</g>
<defs>
<clipPath id="clip0_366_20972">
<rect width="1280" height="590.769" fill="white"/>
</clipPath>
</defs>
</svg>
