<svg width="402" height="107" viewBox="0 0 402 107" fill="none" xmlns="http://www.w3.org/2000/svg">
<g clip-path="url(#clip0_322_14950)">
<path d="M20.9515 88.6584H55.3718V105.301H0V0.649902H20.9515V88.6584Z" fill="#F5F5F7"/>
<path d="M145.76 61.971C145.76 64.9696 145.561 67.6683 145.162 70.0672H84.552C85.0508 76.0643 87.1459 80.7621 90.8374 84.1605C94.5289 87.5589 99.0684 89.2581 104.456 89.2581C112.238 89.2581 117.775 85.9097 121.067 79.2128H143.665C141.271 87.2091 136.681 93.806 129.897 99.0035C123.113 104.101 114.782 106.65 104.905 106.65C96.9233 106.65 89.7399 104.901 83.3547 101.402C77.0693 97.8041 72.1307 92.7565 68.539 86.2595C65.0471 79.7626 63.3011 72.2661 63.3011 63.7701C63.3011 55.1742 65.0471 47.6277 68.539 41.1308C72.0309 34.6339 76.9196 29.6362 83.2051 26.1379C89.4905 22.6395 96.7238 20.8904 104.905 20.8904C112.787 20.8904 119.82 22.5896 126.006 25.9879C132.291 29.3863 137.13 34.2341 140.522 40.5311C144.014 46.7282 145.76 53.8748 145.76 61.971ZM124.061 55.9738C123.961 50.5764 122.015 46.2784 118.224 43.0799C114.433 39.7814 109.794 38.1322 104.306 38.1322C99.1182 38.1322 94.7284 39.7315 91.1367 42.93C87.6448 46.0285 85.4998 50.3765 84.7016 55.9738H124.061Z" fill="#F5F5F7"/>
<path d="M155.665 63.4703C155.665 55.0742 157.312 47.6277 160.604 41.1308C163.996 34.6339 168.536 29.6362 174.223 26.1379C180.009 22.6395 186.444 20.8904 193.528 20.8904C199.714 20.8904 205.101 22.1398 209.69 24.6386C214.38 27.1374 218.121 30.2859 220.914 34.0841V22.2397H242.016V105.301H220.914V93.1563C218.221 97.0544 214.479 100.303 209.69 102.902C205.001 105.401 199.564 106.65 193.378 106.65C186.394 106.65 180.009 104.851 174.223 101.252C168.536 97.6542 163.996 92.6065 160.604 86.1096C157.312 79.5127 155.665 71.9663 155.665 63.4703ZM220.914 63.7701C220.914 58.6725 219.917 54.3246 217.921 50.7263C215.926 47.028 213.232 44.2293 209.84 42.3302C206.448 40.3312 202.806 39.3317 198.915 39.3317C195.024 39.3317 191.433 40.2812 188.14 42.1803C184.848 44.0794 182.154 46.8781 180.059 50.5764C178.064 54.1747 177.066 58.4726 177.066 63.4703C177.066 68.4679 178.064 72.8658 180.059 76.6641C182.154 80.3623 184.848 83.211 188.14 85.21C191.532 87.2091 195.124 88.2086 198.915 88.2086C202.806 88.2086 206.448 87.2591 209.84 85.36C213.232 83.3609 215.926 80.5622 217.921 76.9639C219.917 73.2657 220.914 68.8677 220.914 63.7701Z" fill="#F5F5F7"/>
<path d="M283.43 35.1336C286.124 30.7357 289.616 27.2873 293.906 24.7885C298.296 22.2897 303.284 21.0403 308.871 21.0403V43.0799H303.334C296.749 43.0799 291.761 44.6292 288.368 47.7277C285.076 50.8262 283.43 56.2237 283.43 63.9201V105.301H262.478V22.2397H283.43V35.1336Z" fill="#F5F5F7"/>
<path d="M368.927 21.0403C378.804 21.0403 386.785 24.1888 392.871 30.4858C398.957 36.6829 402 45.3788 402 56.5735V105.301H381.048V59.4222C381.048 52.8253 379.402 47.7777 376.11 44.2793C372.818 40.681 368.328 38.8819 362.641 38.8819C356.855 38.8819 352.265 40.681 348.873 44.2793C345.581 47.7777 343.934 52.8253 343.934 59.4222V105.301H322.983V22.2397H343.934V32.5848C346.728 28.9865 350.27 26.1879 354.56 24.1888C358.95 22.0898 363.739 21.0403 368.927 21.0403Z" fill="#F5F5F7"/>
</g>
<defs>
<clipPath id="clip0_322_14950">
<rect width="402" height="107" fill="white"/>
</clipPath>
</defs>
</svg>
