<svg width="394" height="177" viewBox="0 0 394 177" fill="none" xmlns="http://www.w3.org/2000/svg">
<g clip-path="url(#clip0_322_14963)">
<path d="M22.2552 61.8303C18.0734 61.8303 14.2926 61.1172 10.9128 59.6911C7.59026 58.265 4.95515 56.2114 3.00746 53.5303C1.05977 50.8492 0.0572849 47.6832 0 44.0324H12.8891C13.061 46.4853 13.9203 48.4248 15.4669 49.8509C17.0709 51.277 19.2478 51.9901 21.9974 51.9901C24.8044 51.9901 27.0099 51.3341 28.6139 50.0221C30.2178 48.653 31.0198 46.8846 31.0198 44.7169C31.0198 42.9485 30.4756 41.4939 29.3872 40.353C28.2988 39.2121 26.9239 38.3279 25.2627 37.7004C23.6587 37.0159 21.4246 36.2743 18.5603 35.4757C14.665 34.3348 11.4856 33.2224 9.02239 32.1386C6.61642 30.9977 4.52551 29.3148 2.74968 27.0901C1.03113 24.8083 0.171855 21.785 0.171855 18.02C0.171855 14.4832 1.05977 11.4028 2.83561 8.77876C4.61144 6.15471 7.10334 4.15815 10.3113 2.78908C13.5193 1.36296 17.1855 0.649902 21.31 0.649902C27.4968 0.649902 32.5092 2.16159 36.3473 5.18495C40.2427 8.15127 42.3909 12.3155 42.7919 17.6777H29.5591C29.4445 15.6241 28.5566 13.9413 26.8953 12.6293C25.2913 11.2602 23.1431 10.5757 20.4507 10.5757C18.1021 10.5757 16.2117 11.1746 14.7795 12.3726C13.4047 13.5705 12.7173 15.3104 12.7173 17.5922C12.7173 19.1894 13.2328 20.53 14.264 21.6138C15.3524 22.6406 16.6699 23.4963 18.2166 24.1808C19.8206 24.8083 22.0547 25.5499 24.919 26.4056C28.8144 27.5465 31.9937 28.6874 34.4569 29.8283C36.9202 30.9691 39.0397 32.6805 40.8156 34.9623C42.5914 37.2441 43.4793 40.2389 43.4793 43.9468C43.4793 47.1413 42.6487 50.1076 40.9874 52.8458C39.3261 55.5839 36.8915 57.7801 33.6836 59.4344C30.4756 61.0317 26.6662 61.8303 22.2552 61.8303Z" fill="#F5F5F7"/>
<path d="M67.9149 23.6674V46.5994C67.9149 48.1966 68.2873 49.366 69.032 50.1076C69.834 50.7922 71.1515 51.1344 72.9847 51.1344H78.5699V61.2313H71.0083C60.8689 61.2313 55.7992 56.3255 55.7992 46.5138V23.6674H50.1279V13.8272H55.7992V2.10454H67.9149V13.8272H78.5699V23.6674H67.9149Z" fill="#F5F5F7"/>
<path d="M84.129 37.3581C84.129 32.5664 85.0742 28.3166 86.9647 24.6087C88.9123 20.9008 91.5188 18.0485 94.7841 16.052C98.1066 14.0554 101.801 13.0571 105.869 13.0571C109.42 13.0571 112.514 13.7702 115.149 15.1963C117.841 16.6224 119.989 18.4193 121.593 20.587V13.8272H133.709V61.2313H121.593V54.3004C120.047 56.5252 117.899 58.3791 115.149 59.8623C112.456 61.2884 109.334 62.0014 105.783 62.0014C101.773 62.0014 98.1066 60.9746 94.7841 58.921C91.5188 56.8674 88.9123 53.9867 86.9647 50.2788C85.0742 46.5138 84.129 42.2069 84.129 37.3581ZM121.593 37.5293C121.593 34.62 121.021 32.1386 119.875 30.0849C118.729 27.9743 117.182 26.377 115.235 25.2932C113.287 24.1523 111.196 23.5819 108.962 23.5819C106.728 23.5819 104.666 24.1238 102.775 25.2076C100.885 26.2915 99.3382 27.8887 98.1352 29.9994C96.9895 32.053 96.4167 34.5059 96.4167 37.3581C96.4167 40.2104 96.9895 42.7203 98.1352 44.888C99.3382 46.9987 100.885 48.6245 102.775 49.7654C104.723 50.9063 106.785 51.4767 108.962 51.4767C111.196 51.4767 113.287 50.9348 115.235 49.8509C117.182 48.71 118.729 47.1128 119.875 45.0592C121.021 42.9485 121.593 40.4386 121.593 37.5293Z" fill="#F5F5F7"/>
<path d="M191 13.8272L161.527 83.6499H148.724L159.035 60.0334L139.959 13.8272H153.45L165.737 46.9417L178.197 13.8272H191Z" fill="#F5F5F7"/>
<path d="M12.8928 87.5403V127.556C12.8928 131.941 14.0286 135.306 16.3002 137.653C18.5718 139.938 21.7643 141.08 25.8777 141.08C30.0525 141.08 33.2757 139.938 35.5473 137.653C37.8189 135.306 38.9547 131.941 38.9547 127.556V87.5403H51.9396V127.464C51.9396 132.96 50.7424 137.622 48.3481 141.451C46.0151 145.218 42.8533 148.058 38.8626 149.973C34.9334 151.887 30.5437 152.844 25.6935 152.844C20.9048 152.844 16.5458 151.887 12.6165 149.973C8.7487 148.058 5.67898 145.218 3.40739 141.451C1.1358 137.622 0 132.96 0 127.464V87.5403H12.8928Z" fill="#F5F5F7"/>
<path d="M77.2893 108.289C78.9469 105.943 81.2185 103.998 84.104 102.454C87.051 100.848 90.397 100.045 94.142 100.045C98.501 100.045 102.43 101.126 105.93 103.287C109.491 105.449 112.284 108.536 114.31 112.55C116.397 116.502 117.441 121.103 117.441 126.352C117.441 131.601 116.397 136.263 114.31 140.339C112.284 144.353 109.491 147.472 105.93 149.695C102.43 151.918 98.501 153.029 94.142 153.029C90.397 153.029 87.0817 152.257 84.1961 150.714C81.372 149.17 79.0697 147.225 77.2893 144.878V176.65H64.3964V100.879H77.2893V108.289ZM104.272 126.352C104.272 123.264 103.627 120.609 102.338 118.386C101.11 116.101 99.4526 114.372 97.3652 113.199C95.3392 112.025 93.129 111.439 90.7346 111.439C88.4016 111.439 86.1914 112.056 84.104 113.291C82.078 114.465 80.4204 116.194 79.1311 118.479C77.9032 120.763 77.2893 123.45 77.2893 126.537C77.2893 129.625 77.9032 132.311 79.1311 134.596C80.4204 136.881 82.078 138.641 84.104 139.876C86.1914 141.049 88.4016 141.636 90.7346 141.636C93.129 141.636 95.3392 141.018 97.3652 139.783C99.4526 138.548 101.11 136.788 102.338 134.503C103.627 132.219 104.272 129.501 104.272 126.352Z" fill="#F5F5F7"/>
<path d="M123.495 126.352C123.495 121.165 124.508 116.564 126.534 112.55C128.621 108.536 131.445 105.449 135.006 103.287C138.567 101.126 142.527 100.045 146.886 100.045C150.201 100.045 153.363 100.786 156.371 102.268C159.38 103.689 161.774 105.603 163.555 108.011V83.6499H176.632V152.196H163.555V144.6C161.958 147.132 159.717 149.17 156.832 150.714C153.946 152.257 150.6 153.029 146.794 153.029C142.496 153.029 138.567 151.918 135.006 149.695C131.445 147.472 128.621 144.353 126.534 140.339C124.508 136.263 123.495 131.601 123.495 126.352ZM163.647 126.537C163.647 123.388 163.033 120.702 161.805 118.479C160.577 116.194 158.919 114.465 156.832 113.291C154.744 112.056 152.504 111.439 150.109 111.439C147.715 111.439 145.505 112.025 143.479 113.199C141.453 114.372 139.795 116.101 138.506 118.386C137.278 120.609 136.664 123.264 136.664 126.352C136.664 129.44 137.278 132.157 138.506 134.503C139.795 136.788 141.453 138.548 143.479 139.783C145.566 141.018 147.776 141.636 150.109 141.636C152.504 141.636 154.744 141.049 156.832 139.876C158.919 138.641 160.577 136.912 161.805 134.689C163.033 132.404 163.647 129.687 163.647 126.537Z" fill="#F5F5F7"/>
<path d="M185.908 126.352C185.908 121.165 186.921 116.564 188.947 112.55C191.035 108.536 193.828 105.449 197.328 103.287C200.889 101.126 204.849 100.045 209.208 100.045C213.014 100.045 216.329 100.817 219.153 102.361C222.039 103.905 224.341 105.85 226.06 108.197V100.879H239.045V152.196H226.06V144.693C224.403 147.101 222.1 149.108 219.153 150.714C216.268 152.257 212.922 153.029 209.115 153.029C204.818 153.029 200.889 151.918 197.328 149.695C193.828 147.472 191.035 144.353 188.947 140.339C186.921 136.263 185.908 131.601 185.908 126.352ZM226.06 126.537C226.06 123.388 225.446 120.702 224.218 118.479C222.991 116.194 221.333 114.465 219.245 113.291C217.158 112.056 214.917 111.439 212.523 111.439C210.128 111.439 207.918 112.025 205.892 113.199C203.866 114.372 202.209 116.101 200.919 118.386C199.691 120.609 199.077 123.264 199.077 126.352C199.077 129.44 199.691 132.157 200.919 134.503C202.209 136.788 203.866 138.548 205.892 139.783C207.98 141.018 210.19 141.636 212.523 141.636C214.917 141.636 217.158 141.049 219.245 139.876C221.333 138.641 222.991 136.912 224.218 134.689C225.446 132.404 226.06 129.687 226.06 126.537Z" fill="#F5F5F7"/>
<path d="M266.648 111.531V136.356C266.648 138.085 267.047 139.351 267.845 140.154C268.705 140.895 270.117 141.265 272.082 141.265H278.068V152.196H269.963C259.097 152.196 253.663 146.885 253.663 136.263V111.531H247.585V100.879H253.663V88.1887H266.648V100.879H278.068V111.531H266.648Z" fill="#F5F5F7"/>
<path d="M334.768 125.426C334.768 127.278 334.645 128.946 334.399 130.428H297.102C297.409 134.133 298.699 137.035 300.97 139.135C303.242 141.235 306.035 142.284 309.351 142.284C314.139 142.284 317.547 140.216 319.573 136.078H333.479C332.005 141.018 329.181 145.094 325.006 148.305C320.831 151.455 315.705 153.029 309.627 153.029C304.715 153.029 300.295 151.949 296.366 149.787C292.498 147.564 289.459 144.446 287.249 140.432C285.1 136.418 284.025 131.786 284.025 126.537C284.025 121.227 285.1 116.564 287.249 112.55C289.397 108.536 292.406 105.449 296.274 103.287C300.141 101.126 304.593 100.045 309.627 100.045C314.477 100.045 318.805 101.095 322.612 103.195C326.48 105.294 329.457 108.289 331.545 112.18C333.693 116.008 334.768 120.424 334.768 125.426ZM321.415 121.721C321.353 118.386 320.156 115.731 317.823 113.754C315.49 111.717 312.635 110.698 309.258 110.698C306.066 110.698 303.365 111.686 301.154 113.662C299.006 115.576 297.686 118.262 297.195 121.721H321.415Z" fill="#F5F5F7"/>
<path d="M340.863 126.352C340.863 121.165 341.876 116.564 343.902 112.55C345.99 108.536 348.814 105.449 352.375 103.287C355.935 101.126 359.895 100.045 364.254 100.045C367.57 100.045 370.732 100.786 373.74 102.268C376.748 103.689 379.143 105.603 380.923 108.011V83.6499H394V152.196H380.923V144.6C379.327 147.132 377.086 149.17 374.2 150.714C371.315 152.257 367.969 153.029 364.162 153.029C359.865 153.029 355.935 151.918 352.375 149.695C348.814 147.472 345.99 144.353 343.902 140.339C341.876 136.263 340.863 131.601 340.863 126.352ZM381.015 126.537C381.015 123.388 380.401 120.702 379.173 118.479C377.945 116.194 376.288 114.465 374.2 113.291C372.113 112.056 369.872 111.439 367.478 111.439C365.083 111.439 362.873 112.025 360.847 113.199C358.821 114.372 357.163 116.101 355.874 118.386C354.646 120.609 354.032 123.264 354.032 126.352C354.032 129.44 354.646 132.157 355.874 134.503C357.163 136.788 358.821 138.548 360.847 139.783C362.934 141.018 365.145 141.636 367.478 141.636C369.872 141.636 372.113 141.049 374.2 139.876C376.288 138.641 377.945 136.912 379.173 134.689C380.401 132.404 381.015 129.687 381.015 126.537Z" fill="#F5F5F7"/>
</g>
<defs>
<clipPath id="clip0_322_14963">
<rect width="394" height="177" fill="white"/>
</clipPath>
</defs>
</svg>
