<svg width="185" height="34" viewBox="0 0 185 34" fill="none" xmlns="http://www.w3.org/2000/svg">
<g clip-path="url(#clip0_534_7477)">
<path d="M6.79601 13.3778H0V-0.000244141H27.0877V6.8191H6.79601V13.3778Z" fill="#9FCFCA"/>
<path d="M6.80273 33.9999H13.5986V13.3572H6.80273V33.9999Z" fill="#E7D21F"/>
<path d="M20.292 27.1765H27.088V13.3572H20.292V27.1765Z" fill="#E7D21F"/>
<path d="M33.8824 13.3781H27.0864V6.82202H33.8824V13.3781Z" fill="#A4BBC2"/>
<path d="M42.9177 0.226562H43.8213V33.7732H42.9177V0.226562Z" fill="#A4BAC3"/>
<path d="M64.8092 19.5477H57.2479L55.9488 23.2206H52.8567L59.3267 5.21802H62.7566L69.2266 23.2206H66.1085L64.8092 19.5477ZM63.9777 17.1422L61.0416 8.78752L58.0794 17.1422H63.9777Z" fill="#6B7280"/>
<path d="M72.0918 16.0817C72.0918 14.616 72.3861 13.3313 72.9752 12.2277C73.5815 11.1069 74.413 10.2447 75.4697 9.64115C76.5264 9.03762 77.7389 8.73584 79.1073 8.73584C80.8397 8.73584 82.2686 9.14971 83.3946 9.97741C84.5378 10.7879 85.3088 11.9518 85.7073 13.4693H82.5112C82.2514 12.7623 81.8356 12.2105 81.2641 11.8139C80.6924 11.4173 79.9734 11.219 79.1073 11.219C77.8948 11.219 76.9246 11.6501 76.1973 12.5123C75.4868 13.3572 75.1318 14.5471 75.1318 16.0817C75.1318 17.6165 75.4868 18.8149 76.1973 19.6771C76.9246 20.5393 77.8948 20.9704 79.1073 20.9704C80.8223 20.9704 81.9569 20.2203 82.5112 18.7201H85.7073C85.2914 20.1686 84.5119 21.3239 83.3687 22.1861C82.2255 23.0311 80.8049 23.4534 79.1073 23.4534C77.7389 23.4534 76.5264 23.1517 75.4697 22.5482C74.413 21.9274 73.5815 21.0652 72.9752 19.9616C72.3861 18.8408 72.0918 17.5475 72.0918 16.0817Z" fill="#6B7280"/>
<path d="M88.7109 16.03C88.7109 14.5988 89.0055 13.3313 89.5944 12.2277C90.2009 11.1241 91.015 10.2706 92.0369 9.66701C93.0764 9.04624 94.2196 8.73584 95.4667 8.73584C96.5927 8.73584 97.5715 8.96001 98.403 9.40836C99.2519 9.83946 99.9273 10.3826 100.43 11.0379V8.96865H103.418V23.2206H100.43V21.0997C99.9273 21.7722 99.2431 22.3327 98.377 22.7809C97.511 23.2292 96.5234 23.4534 95.4148 23.4534C94.185 23.4534 93.059 23.1431 92.0369 22.5224C91.015 21.8843 90.2009 21.0049 89.5944 19.884C89.0055 18.7459 88.7109 17.4613 88.7109 16.03ZM100.43 16.0817C100.43 15.0988 100.222 14.2453 99.8062 13.521C99.4077 12.7968 98.8794 12.245 98.2212 11.8656C97.5629 11.4863 96.8525 11.2966 96.0904 11.2966C95.3282 11.2966 94.6181 11.4863 93.9598 11.8656C93.3016 12.2277 92.7644 12.7709 92.3488 13.4952C91.9504 14.2022 91.7511 15.0471 91.7511 16.03C91.7511 17.0129 91.9504 17.8751 92.3488 18.6166C92.7644 19.3581 93.3016 19.9271 93.9598 20.3238C94.6352 20.7031 95.3456 20.8928 96.0904 20.8928C96.8525 20.8928 97.5629 20.7031 98.2212 20.3238C98.8794 19.9444 99.4077 19.3926 99.8062 18.6683C100.222 17.9269 100.43 17.0647 100.43 16.0817Z" fill="#6B7280"/>
<path d="M107.361 16.0301C107.361 14.5989 107.655 13.3314 108.244 12.2278C108.85 11.1242 109.664 10.2706 110.687 9.66709C111.726 9.04632 112.878 8.73592 114.142 8.73592C115.078 8.73592 115.996 8.94287 116.897 9.35672C117.815 9.75332 118.542 10.2879 119.079 10.9604V4.08008H122.067V23.2207H119.079V21.074C118.594 21.7637 117.919 22.3328 117.052 22.781C116.204 23.2293 115.225 23.4535 114.116 23.4535C112.869 23.4535 111.726 23.1432 110.687 22.5224C109.664 21.8844 108.85 21.005 108.244 19.8841C107.655 18.746 107.361 17.4613 107.361 16.0301ZM119.079 16.0818C119.079 15.0989 118.871 14.2454 118.456 13.5211C118.057 12.7969 117.529 12.2451 116.871 11.8657C116.212 11.4863 115.502 11.2966 114.74 11.2966C113.978 11.2966 113.267 11.4863 112.609 11.8657C111.951 12.2278 111.414 12.771 110.998 13.4952C110.6 14.2023 110.401 15.0472 110.401 16.0301C110.401 17.013 110.6 17.8752 110.998 18.6167C111.414 19.3582 111.951 19.9272 112.609 20.3238C113.285 20.7032 113.995 20.8929 114.74 20.8929C115.502 20.8929 116.212 20.7032 116.871 20.3238C117.529 19.9445 118.057 19.3927 118.456 18.6684C118.871 17.9269 119.079 17.0647 119.079 16.0818Z" fill="#6B7280"/>
<path d="M140.119 15.7455C140.119 16.2801 140.084 16.7629 140.015 17.194H129.076C129.163 18.3321 129.587 19.246 130.349 19.9358C131.111 20.6255 132.047 20.9704 133.155 20.9704C134.749 20.9704 135.875 20.3065 136.533 18.9787H139.729C139.296 20.2893 138.508 21.367 137.365 22.212C136.239 23.0398 134.836 23.4534 133.155 23.4534C131.787 23.4534 130.557 23.1517 129.466 22.5482C128.392 21.9274 127.543 21.0652 126.919 19.9616C126.313 18.8408 126.01 17.5475 126.01 16.0817C126.01 14.616 126.304 13.3313 126.893 12.2277C127.5 11.1069 128.34 10.2447 129.414 9.64115C130.505 9.03762 131.752 8.73584 133.155 8.73584C134.507 8.73584 135.71 9.02899 136.767 9.61528C137.824 10.2016 138.647 11.0293 139.236 12.0984C139.825 13.1503 140.119 14.366 140.119 15.7455ZM137.027 14.8143C137.01 13.728 136.62 12.8571 135.858 12.2019C135.096 11.5466 134.152 11.219 133.026 11.219C132.003 11.219 131.129 11.5466 130.401 12.2019C129.674 12.8399 129.241 13.7107 129.102 14.8143H137.027Z" fill="#6B7280"/>
<path d="M161.405 8.73584C162.531 8.73584 163.536 8.96865 164.419 9.43422C165.32 9.89982 166.021 10.5896 166.524 11.5035C167.043 12.4174 167.303 13.521 167.303 14.8143V23.2206H164.367V15.254C164.367 13.978 164.047 13.0037 163.405 12.3312C162.765 11.6415 161.89 11.2966 160.781 11.2966C159.672 11.2966 158.789 11.6415 158.131 12.3312C157.49 13.0037 157.169 13.978 157.169 15.254V23.2206H154.233V15.254C154.233 13.978 153.913 13.0037 153.272 12.3312C152.631 11.6415 151.756 11.2966 150.647 11.2966C149.539 11.2966 148.655 11.6415 147.997 12.3312C147.356 13.0037 147.036 13.978 147.036 15.254V23.2206H144.074V8.96865H147.036V10.5982C147.521 10.0119 148.136 9.55494 148.881 9.2273C149.626 8.89967 150.422 8.73584 151.271 8.73584C152.414 8.73584 153.436 8.97726 154.337 9.46008C155.238 9.94293 155.931 10.6413 156.416 11.5552C156.849 10.693 157.525 10.0119 158.443 9.51183C159.361 8.99451 160.348 8.73584 161.405 8.73584Z" fill="#6B7280"/>
<path d="M185 8.96875L176.217 29.9201H173.151L176.061 22.9879L170.423 8.96875H173.723L177.75 19.8324L181.934 8.96875H185Z" fill="#6B7280"/>
</g>
<defs>
<clipPath id="clip0_534_7477">
<rect width="185" height="34" fill="white"/>
</clipPath>
</defs>
</svg>
