<svg width="1280" height="316" viewBox="0 0 1280 316" fill="none" xmlns="http://www.w3.org/2000/svg">
<g clip-path="url(#clip0_322_12753)">
<path d="M0 426V159C143.079 187.143 286.159 215.286 373.333 209C460.508 202.714 491.778 162 596.444 138C701.111 114 879.175 106.714 1005.33 113C1131.49 119.286 1205.75 139.143 1280 159V426H0Z" fill="url(#paint0_linear_322_12753)" fill-opacity="0.53"/>
<path d="M0 316V182C136.254 164.928 272.508 147.857 373.333 160C474.159 172.143 539.556 213.5 637.333 222C735.111 230.5 865.27 206.143 977.778 194C1090.29 181.857 1185.14 181.928 1280 182V316H0Z" fill="url(#paint1_linear_322_12753)" fill-opacity="0.7"/>
</g>
<defs>
<linearGradient id="paint0_linear_322_12753" x1="0" y1="268.427" x2="1280" y2="268.427" gradientUnits="userSpaceOnUse">
<stop offset="0.05" stop-color="white"/>
<stop offset="0.95" stop-color="white"/>
</linearGradient>
<linearGradient id="paint1_linear_322_12753" x1="0" y1="235.95" x2="1280" y2="235.95" gradientUnits="userSpaceOnUse">
<stop offset="0.05" stop-color="white"/>
<stop offset="0.95" stop-color="white"/>
</linearGradient>
<clipPath id="clip0_322_12753">
<rect width="1280" height="315.146" fill="white" transform="translate(0 0.854004)"/>
</clipPath>
</defs>
</svg>
